<?xml version="1.0" standalone="no"?>
<!DOCTYPE svg PUBLIC "-//W3C//DTD SVG 20010904//EN"
 "http://www.w3.org/TR/2001/REC-SVG-20010904/DTD/svg10.dtd">
<svg version="1.0" xmlns="http://www.w3.org/2000/svg"
 width="514.000000pt" height="514.000000pt" viewBox="0 0 514.000000 514.000000"
 preserveAspectRatio="xMidYMid meet">
<metadata>
Created by potrace 1.14, written by Peter Selinger 2001-2017
</metadata>
<g transform="translate(0.000000,514.000000) scale(0.100000,-0.100000)"
fill="#000000" stroke="none">
<path d="M2378 4771 c-2 -5 -325 -224 -718 -487 -393 -262 -723 -485 -732
-495 -31 -32 -578 -919 -578 -937 0 -15 199 -665 370 -1212 l39 -125 516 -464
515 -465 313 -114 312 -113 559 36 c307 20 566 39 575 43 31 12 557 309 781
442 124 73 230 133 237 133 6 0 14 10 17 22 13 52 197 1739 197 1810 1 31
-165 1008 -186 1103 -3 12 -9 22 -14 22 -5 0 -219 108 -476 239 l-466 240
-597 160 c-637 171 -659 176 -664 162z m367 -110 c148 -40 270 -73 271 -74 1
-1 18 -34 37 -73 l36 -72 -112 35 c-62 19 -175 54 -252 78 l-140 44 -70 72
c-38 39 -63 69 -55 67 8 -3 136 -38 285 -77z m600 -161 c149 -39 271 -73 273
-75 3 -3 -19 -138 -24 -144 -1 -1 -112 33 -246 78 l-244 81 -32 65 c-37 76
-38 79 -14 72 9 -2 139 -37 287 -77z m-438 -15 l192 -59 46 -69 c26 -38 45
-71 43 -73 -3 -2 -94 26 -204 62 l-199 66 -80 79 -80 79 45 -13 c25 -8 131
-40 237 -72z m705 -285 c10 -35 16 -65 15 -67 -2 -1 -93 28 -203 66 l-199 68
-52 75 -52 75 237 -76 237 -77 17 -64z m243 108 c116 -59 216 -111 223 -116
11 -8 9 -18 -13 -51 -15 -22 -33 -41 -40 -41 -11 0 -403 165 -411 173 -7 6 18
148 25 145 3 -2 101 -51 216 -110z m-845 17 l195 -64 67 -73 c37 -40 65 -74
63 -76 -2 -2 -88 27 -192 63 l-188 67 -75 74 c-41 41 -72 74 -70 74 3 0 93
-29 200 -65z m1010 -250 c0 -5 -8 -26 -18 -47 l-17 -36 -171 66 -172 66 -12
55 c-7 31 -15 61 -17 68 -2 6 88 -28 201 -75 113 -48 206 -91 206 -97z m-338
-26 c26 -35 47 -67 47 -71 1 -4 -79 20 -176 53 -189 65 -179 59 -271 168 l-44
51 199 -69 198 -68 47 -64z m-371 52 c31 -11 75 -43 135 -99 l89 -83 -55 21
c-30 12 -125 49 -211 82 -153 59 -157 61 -225 129 l-69 70 145 -52 c80 -28
166 -58 191 -68z m1189 -124 l44 -26 -54 -25 c-34 -16 -59 -22 -69 -17 -9 5
-95 46 -191 91 -96 45 -177 83 -178 85 -2 2 8 24 23 49 l27 45 176 -88 c97
-49 197 -100 222 -114z m-665 59 l140 -54 -2 -32 c0 -17 -3 -33 -5 -35 -4 -4
-194 41 -207 50 -5 3 -30 35 -56 71 -31 45 -40 64 -28 60 10 -3 81 -30 158
-60z m-245 -31 l165 -56 115 -101 c63 -56 106 -98 95 -94 -11 4 -105 40 -208
79 l-189 72 -86 83 c-48 46 -80 81 -72 78 8 -2 89 -30 180 -61z m642 -21 c100
-47 184 -86 185 -88 2 -1 -24 -14 -56 -28 l-60 -26 -148 70 c-81 39 -149 72
-150 73 -5 4 32 85 39 85 4 0 89 -39 190 -86z m-1117 -363 c9 -211 14 -385 12
-388 -5 -4 -418 34 -422 39 -13 16 -206 390 -203 393 2 2 136 90 298 195 268
174 295 189 297 168 1 -13 10 -196 18 -407z m228 344 l222 -86 42 -417 c23
-229 40 -418 39 -420 -2 -1 -115 39 -253 90 l-250 93 -12 315 c-6 173 -14 359
-18 413 -3 53 -3 97 1 97 4 0 107 -38 229 -85z m799 -62 l141 -67 -58 -28 -58
-27 -91 61 c-50 34 -92 62 -94 63 -4 3 10 65 15 65 3 0 68 -30 145 -67z m-247
12 c53 -12 92 -31 164 -78 l94 -62 -49 -22 c-27 -12 -55 -22 -63 -22 -7 -1
-50 30 -95 68 -134 115 -163 142 -141 137 11 -3 52 -13 90 -21z m655 -293
c-11 -149 -20 -277 -21 -284 0 -7 -15 25 -33 72 -33 84 -33 88 -37 278 l-4
194 55 23 c51 22 55 22 58 6 2 -10 -6 -140 -18 -289z m-744 164 c121 -46 220
-90 222 -98 11 -56 150 -873 148 -875 -2 -2 -508 215 -512 220 -1 1 -18 169
-38 372 -20 204 -40 391 -43 418 -3 26 -3 47 -1 47 3 0 104 -38 224 -84z m636
-98 l6 -182 -32 -83 -32 -82 -28 207 c-15 113 -30 221 -33 239 -5 32 -4 34 48
57 30 14 57 25 60 25 3 1 8 -81 11 -181z m187 -88 l39 -225 -23 -225 c-12
-124 -25 -218 -28 -210 -4 8 -23 91 -42 183 l-36 169 15 211 c20 262 29 356
33 337 2 -8 20 -116 42 -240z m-291 -22 c18 -128 32 -242 32 -254 0 -21 -78
-226 -80 -209 0 6 -24 153 -54 328 l-53 317 51 24 c28 13 56 25 62 25 6 1 23
-92 42 -231z m-165 150 c3 -13 29 -162 58 -333 l52 -309 -39 -119 c-31 -94
-40 -114 -46 -95 -4 13 -37 196 -72 408 -36 212 -68 393 -70 403 -4 15 7 24
47 42 65 30 64 30 70 3z m-1487 -474 c-3 -7 -51 -90 -106 -183 l-101 -170 -67
42 c-332 207 -512 323 -510 329 2 4 134 92 293 196 l290 188 103 -194 c57
-106 101 -200 98 -208z m1815 -150 c-14 -101 -28 -181 -32 -177 -3 5 -23 94
-44 198 l-37 191 32 83 33 84 36 -97 37 -97 -25 -185z m219 -26 l39 -226 -22
-208 -23 -209 -41 210 -41 210 21 227 c12 125 23 226 24 224 2 -2 21 -104 43
-228z m-295 -16 l41 -208 -27 -170 c-14 -94 -28 -176 -30 -183 -3 -7 -29 120
-58 283 l-54 294 38 101 c21 56 41 99 44 96 2 -3 23 -99 46 -213z m-1500 172
c105 -9 193 -20 198 -23 8 -8 -24 -636 -34 -652 -5 -9 -579 315 -590 333 -2 4
43 89 101 188 73 125 110 178 120 175 8 -2 101 -11 205 -21z m-771 -160 c155
-97 286 -181 293 -188 10 -8 -19 -45 -124 -159 -74 -82 -141 -146 -148 -144
-17 7 -660 451 -665 460 -5 7 336 206 354 207 5 0 135 -79 290 -176z m2441
-422 c-14 -113 -26 -206 -28 -208 -1 -2 -22 90 -45 204 l-42 207 27 198 27
199 42 -198 42 -198 -23 -204z m-1195 464 c129 -48 239 -91 243 -96 9 -8 69
-728 65 -776 l-3 -30 -280 150 c-154 83 -289 156 -299 162 -19 11 -19 18 -1
348 13 227 22 335 29 333 6 -3 117 -44 246 -91z m-1520 -349 c151 -104 279
-193 284 -197 5 -5 -52 -84 -128 -179 l-137 -170 -278 219 c-153 120 -329 257
-390 305 -62 48 -109 91 -104 96 4 4 86 50 182 102 l174 95 61 -41 c34 -22
185 -126 336 -230z m2466 -28 l55 -294 -23 -239 c-13 -143 -25 -229 -29 -215
-4 13 -38 201 -75 418 l-67 395 39 118 c21 64 40 116 42 114 2 -2 28 -136 58
-297z m-167 55 c7 -6 153 -875 148 -880 -6 -7 -597 283 -598 293 0 4 -14 188
-32 409 l-32 400 255 -109 c140 -61 257 -112 259 -113z m-1411 -93 c160 -93
297 -173 305 -178 12 -6 -3 -41 -79 -183 -51 -96 -98 -174 -104 -173 -10 3
-680 390 -688 398 -4 3 266 305 273 305 1 0 133 -76 293 -169z m-2045 32 c4
-58 7 -156 7 -217 l0 -111 -76 -93 c-42 -52 -80 -90 -84 -85 -7 7 -190 592
-190 607 0 3 76 6 168 6 l169 0 6 -107z m354 93 c4 -3 -152 -616 -157 -615 -3
0 -41 43 -85 95 -93 111 -91 103 -97 374 l-4 155 171 -3 c93 -2 171 -5 172 -6z
m408 -297 c204 -160 378 -297 389 -304 17 -13 12 -27 -98 -250 -115 -236 -116
-237 -138 -223 -13 8 -167 104 -343 213 -176 109 -326 203 -334 211 -12 10 -2
61 65 328 43 174 81 316 84 316 3 0 172 -131 375 -291z m3055 -349 c-13 -110
-25 -198 -26 -197 -2 2 -24 100 -49 217 -52 239 -51 234 -14 470 l23 145 44
-217 45 -217 -23 -201z m130 409 l40 -204 -22 -207 c-12 -115 -25 -208 -28
-208 -3 0 -23 92 -44 204 l-38 204 23 210 c13 116 25 210 26 208 2 -2 21 -95
43 -207z m-2110 -249 c173 -100 318 -185 323 -189 10 -10 -195 -372 -209 -369
-7 2 -181 99 -387 217 l-376 214 17 23 c9 13 71 90 137 172 l120 150 30 -18
c17 -10 172 -100 345 -200z m890 -20 c135 -72 249 -136 254 -140 8 -8 -47
-367 -58 -378 -2 -2 -169 76 -370 174 l-366 177 67 126 c36 69 79 150 95 178
l29 53 52 -29 c29 -16 162 -88 297 -161z m-2616 -32 c51 -61 84 -109 81 -118
-2 -8 -32 -127 -65 -265 -33 -137 -65 -268 -71 -290 -11 -39 -13 -35 -105 264
-52 167 -94 307 -94 312 0 11 152 199 161 199 4 0 46 -46 93 -102z m3630 -148
l46 -215 -24 -200 c-12 -110 -26 -193 -29 -185 -3 8 -26 92 -51 186 l-45 172
20 203 c20 210 29 281 35 264 2 -5 23 -107 48 -225z m155 -50 l38 -205 -18
-157 c-10 -87 -19 -170 -21 -185 -2 -16 -24 67 -49 182 l-46 210 23 185 c13
102 24 190 25 195 2 15 5 0 48 -225z m-2333 -106 c208 -119 381 -218 383 -220
4 -4 -209 -335 -244 -380 l-20 -25 -367 186 -367 187 66 131 c36 73 87 178
114 235 26 56 50 102 52 102 2 0 175 -97 383 -216z m-913 -83 c152 -95 277
-175 277 -179 0 -4 -48 -118 -107 -253 l-106 -246 -241 115 c-133 63 -278 131
-323 152 -46 21 -83 43 -83 49 0 6 34 150 76 320 l76 310 76 -48 c42 -26 202
-125 355 -220z m2962 -32 c5 -5 32 -96 60 -203 l51 -193 -386 155 c-212 85
-388 158 -392 161 -6 5 44 325 57 368 3 8 112 -40 302 -133 164 -80 302 -149
308 -155z m-1064 95 c200 -97 366 -178 368 -180 5 -5 -108 -366 -118 -377 -10
-11 -822 355 -819 369 3 11 200 364 203 364 1 0 166 -79 366 -176z m1297 -301
l42 -198 -19 -163 c-10 -90 -21 -165 -23 -168 -3 -2 -25 76 -50 173 l-46 178
21 188 c12 103 24 187 27 187 3 0 24 -89 48 -197z m-507 -49 c211 -86 385
-157 387 -159 2 -2 23 -79 48 -172 25 -92 49 -183 54 -201 4 -18 5 -30 2 -28
-4 2 -235 78 -513 170 l-506 166 60 190 c34 104 66 190 72 190 6 0 184 -70
396 -156z m-959 -44 c221 -100 404 -183 406 -185 2 -2 -64 -81 -148 -175 -84
-94 -150 -173 -147 -176 3 -3 74 73 158 168 84 95 155 173 159 173 15 0 1010
-330 1010 -335 0 -3 -111 -71 -247 -151 l-246 -145 -422 142 c-309 104 -522
184 -801 299 -208 86 -384 159 -391 162 -12 5 243 403 259 403 4 0 189 -81
410 -180z m-1047 -49 c176 -89 326 -165 333 -169 10 -7 -21 -59 -119 -203 -72
-107 -135 -198 -139 -203 -8 -7 -655 255 -672 272 -5 6 126 320 192 460 l20
43 33 -19 c17 -11 176 -92 352 -181z m-896 -195 l283 -135 59 -81 c40 -54 54
-80 42 -77 -10 3 -65 11 -123 17 -77 9 -113 17 -135 33 -32 22 -415 367 -415
373 0 7 3 6 289 -130z m1631 -141 c195 -81 366 -152 380 -157 18 -7 755 -258
848 -289 6 -2 -98 -66 -233 -142 l-246 -137 -344 107 c-190 59 -344 110 -343
113 2 3 79 77 171 164 92 87 165 161 163 164 -3 2 -84 -70 -180 -162 l-174
-166 -39 14 c-501 181 -628 228 -639 234 -11 6 20 58 123 210 76 111 142 201
148 198 5 -2 170 -70 365 -151z m-950 -158 c179 -74 460 -183 625 -242 165
-60 303 -111 308 -115 4 -3 -60 -21 -143 -39 l-151 -33 -232 93 c-128 51 -234
94 -236 96 -3 2 19 28 49 58 30 30 52 57 49 60 -3 2 -30 -20 -59 -50 -30 -30
-58 -55 -62 -55 -18 0 -404 224 -420 244 -10 11 -36 47 -59 78 -35 51 -37 57
-17 49 13 -5 169 -70 348 -144z m-365 2 c89 -11 93 -12 298 -127 l208 -117
-86 -82 c-47 -46 -90 -83 -95 -83 -8 0 -392 341 -465 413 -20 19 -20 19 15 14
19 -4 76 -11 125 -18z m967 -440 c-10 -8 -298 -89 -317 -89 -17 0 -296 98
-305 106 -2 3 36 42 85 88 l89 82 227 -90 c125 -50 225 -94 221 -97z m703 -35
c176 -54 313 -100 305 -101 -8 -1 -119 -9 -246 -18 l-232 -15 -233 84 c-180
65 -228 85 -209 90 134 33 277 64 285 62 6 -2 154 -47 330 -102z m-435 -54
c118 -43 213 -80 210 -80 -3 -1 -115 -9 -249 -19 l-243 -16 -139 49 c-76 27
-137 51 -135 53 7 7 302 91 321 91 11 1 117 -35 235 -78z"/>
</g>
</svg>
